<svg width="19" height="18" viewBox="0 0 19 18" fill="none" xmlns="http://www.w3.org/2000/svg">
<path d="M9.5 0.9375C10.0512 0.937506 10.5903 0.992896 11.1113 1.09863C11.4157 1.16042 11.6125 1.45734 11.5508 1.76172C11.489 2.06595 11.1929 2.26264 10.8887 2.20117C10.4407 2.11023 9.97585 2.06251 9.5 2.0625C5.6686 2.06256 2.56256 5.1686 2.5625 9C2.56255 12.8314 5.6686 15.9374 9.5 15.9375C13.3314 15.9375 16.4375 12.8314 16.4375 9C16.4375 8.52433 16.3897 8.06022 16.2988 7.6123C16.2371 7.30785 16.4338 7.01001 16.7383 6.94824C17.0425 6.88663 17.3394 7.08356 17.4014 7.3877C17.5071 7.90888 17.5625 8.44855 17.5625 9C17.5625 13.4527 13.9527 17.0625 9.5 17.0625C5.04728 17.0624 1.43755 13.4527 1.4375 9C1.43756 4.54728 5.04728 0.937556 9.5 0.9375ZM9.5 4.6875C9.81061 4.68756 10.0625 4.93937 10.0625 5.25C10.0625 5.56062 9.81061 5.81244 9.5 5.8125C7.73967 5.81255 6.31255 7.23967 6.3125 9C6.31256 10.7603 7.73967 12.1875 9.5 12.1875C11.2603 12.1874 12.6874 10.7603 12.6875 9C12.6875 8.68941 12.9394 8.43754 13.25 8.4375C13.5606 8.43755 13.8125 8.68941 13.8125 9C13.8124 11.3816 11.8816 13.3124 9.5 13.3125C7.11835 13.3125 5.18756 11.3816 5.1875 9C5.18755 6.61835 7.11835 4.68755 9.5 4.6875ZM13.9639 1.15234C14.4749 0.734828 15.1936 0.982981 15.4082 1.5459L15.4277 1.60059L15.4326 1.61719L15.7588 2.79102L16.8535 3.06152C16.8606 3.06328 16.868 3.06535 16.875 3.06738C17.4972 3.24751 17.7775 4.01705 17.3379 4.54785C16.9209 5.05134 16.3684 5.69916 15.6299 6.07715C14.924 6.43836 14.0912 6.5341 13.1191 6.1709L9.9209 9.37012C9.70132 9.5896 9.34466 9.58947 9.125 9.37012C8.90537 9.15049 8.90544 8.7939 9.125 8.57422L12.3389 5.36035C11.9885 4.44819 12.0668 3.63974 12.4033 2.94043C12.7698 2.17931 13.4208 1.59616 13.9639 1.15234Z" fill="#0083FF"/>
</svg>
