<svg width="18" height="18" viewBox="0 0 18 18" fill="none" xmlns="http://www.w3.org/2000/svg">
<path d="M14.25 11.25C14.25 14.1495 11.8995 16.5 9 16.5C6.10051 16.5 3.75 14.1495 3.75 11.25C3.75 8.3505 6.10051 6 9 6C11.8995 6 14.25 8.3505 14.25 11.25Z" fill="#42DB71"/>
<circle cx="7.17188" cy="9.42188" r="1.26562" fill="#D5EFEF"/>
<path d="M9.34566 3.73804C9.33321 3.85957 9.31048 3.98013 9.27763 4.09849L8.63818 6M9.34566 3.73804L12.4054 4.52993L9.34566 3.73804ZM12.4054 4.52993C12.3532 4.64122 12.3105 4.75659 12.2776 4.87495L11.744 6.75" fill="#BCE2E2"/>
<path fill-rule="evenodd" clip-rule="evenodd" d="M9.27763 4.09849C9.31048 3.98013 9.33321 3.85957 9.34566 3.73804L12.4054 4.52993C12.3532 4.64122 12.3105 4.75659 12.2776 4.87495L11.744 6.75L10.125 6.18745L8.63818 6L9.27763 4.09849Z" fill="#BCE2E2"/>
<path d="M9.34568 3.73804C9.35783 3.6197 9.3603 3.50042 9.35287 3.38134L9.2607 1.89771C9.2448 1.64222 9.49275 1.44677 9.74872 1.51302L13.2081 2.40839C13.4641 2.47463 13.5776 2.76363 13.4316 2.97723L12.5838 4.21757C12.5158 4.31712 12.4561 4.42159 12.4054 4.52993M9.34568 3.73804L8.25 3.45445L9.34568 3.73804ZM9.34568 3.73804L12.4054 4.52993L9.34568 3.73804ZM12.4054 4.52993L13.5 4.81325L12.4054 4.52993Z" fill="#EAB478"/>
<path d="M14.25 11.25C14.25 14.1495 11.8995 16.5 9 16.5C6.10051 16.5 3.75 14.1495 3.75 11.25C3.75 11.25 6.32812 12.6563 9 11.25C11.6719 9.84373 14.25 11.25 14.25 11.25Z" fill="#42DB71"/>
</svg>
