<svg width="202" height="26" viewBox="0 0 202 26" fill="none" xmlns="http://www.w3.org/2000/svg">
<path d="M9.26073 19.8553C6.58089 19.8553 4.36747 18.955 2.62048 17.1543C0.873494 15.3537 0 13.1329 0 10.492C0 7.83387 0.873494 5.61308 2.62048 3.82958C4.36747 2.02894 6.58089 1.12862 9.26073 1.12862C10.872 1.12862 12.3561 1.51447 13.713 2.28617C15.0868 3.04073 16.1554 4.06967 16.9186 5.37299L13.8911 7.14791C13.4501 6.34191 12.8225 5.71597 12.0084 5.2701C11.1943 4.80707 10.2784 4.57556 9.26073 4.57556C7.5307 4.57556 6.13142 5.12433 5.06287 6.22186C4.01129 7.3194 3.48549 8.74277 3.48549 10.492C3.48549 12.224 4.01129 13.6388 5.06287 14.7363C6.13142 15.8339 7.5307 16.3826 9.26073 16.3826C10.2784 16.3826 11.1943 16.1597 12.0084 15.7138C12.8395 15.2508 13.4671 14.6249 13.8911 13.836L16.9186 15.6109C16.1554 16.9143 15.0953 17.9518 13.7384 18.7235C12.3816 19.478 10.889 19.8553 9.26073 19.8553Z" fill="#0083FF"/>
<path d="M21.7704 14.4277C22.2114 16.0397 23.4072 16.8457 25.3577 16.8457C26.6128 16.8457 27.5626 16.4169 28.2071 15.5595L30.8531 17.1029C29.5979 18.9378 27.7492 19.8553 25.3068 19.8553C23.2036 19.8553 21.516 19.2122 20.2439 17.926C18.9719 16.6399 18.3358 15.0193 18.3358 13.0643C18.3358 11.1265 18.9634 9.51447 20.2185 8.2283C21.4736 6.92497 23.0849 6.27331 25.0524 6.27331C26.9181 6.27331 28.4531 6.92497 29.6573 8.2283C30.8785 9.53162 31.4891 11.1436 31.4891 13.0643C31.4891 13.493 31.4467 13.9475 31.3619 14.4277H21.7704ZM21.7195 11.8553H28.2071C28.0206 10.9807 27.6305 10.329 27.0368 9.90032C26.4602 9.4716 25.7987 9.25723 25.0524 9.25723C24.1704 9.25723 23.4411 9.48875 22.8644 9.95177C22.2877 10.3976 21.9061 11.0322 21.7195 11.8553Z" fill="#0083FF"/>
<path d="M37.0622 8.84566C37.3675 8.02251 37.8678 7.40514 38.5633 6.99357C39.2756 6.58199 40.0643 6.3762 40.9293 6.3762V10.0804C39.9286 9.96034 39.0297 10.1661 38.2325 10.6977C37.4523 11.2294 37.0622 12.1125 37.0622 13.3473V19.4952H33.7802V6.63344H37.0622V8.84566Z" fill="#0083FF"/>
<path d="M50.4729 9.82315H47.598V15.1736C47.598 15.6195 47.7082 15.9453 47.9287 16.1511C48.1492 16.3569 48.4715 16.477 48.8955 16.5113C49.3195 16.5284 49.8453 16.5198 50.4729 16.4855V19.4952C48.2171 19.7524 46.6227 19.538 45.6899 18.8521C44.774 18.1661 44.316 16.94 44.316 15.1736V9.82315H42.1026V6.63344H44.316V4.03537L47.598 3.03215V6.63344H50.4729V9.82315Z" fill="#0083FF"/>
<path d="M54.4151 5.09003C53.8724 5.09003 53.3975 4.89282 52.9904 4.49839C52.6003 4.08682 52.4053 3.60664 52.4053 3.05788C52.4053 2.50911 52.6003 2.02894 52.9904 1.61736C53.3975 1.20579 53.8724 1 54.4151 1C54.9749 1 55.4498 1.20579 55.8399 1.61736C56.2469 2.02894 56.4505 2.50911 56.4505 3.05788C56.4505 3.60664 56.2469 4.08682 55.8399 4.49839C55.4498 4.89282 54.9749 5.09003 54.4151 5.09003ZM52.7869 19.4952V6.63344H56.0688V19.4952H52.7869Z" fill="#0083FF"/>
<path d="M65.9165 4.31833C64.1186 4.18114 63.2197 4.90997 63.2197 6.50482V6.63344H65.9165V9.82315H63.2197V19.4952H59.9377V9.82315H58.106V6.63344H59.9377V6.50482C59.9377 4.68703 60.4381 3.30654 61.4388 2.36334C62.4395 1.42015 63.9321 1.00857 65.9165 1.12862V4.31833Z" fill="#0083FF"/>
<path d="M74.6462 1.48875C77.0885 1.48875 79.1239 2.35477 80.7521 4.08682C82.3973 5.81886 83.22 7.95391 83.22 10.492C83.22 13.03 82.3973 15.1651 80.7521 16.8971C79.1239 18.6292 77.0885 19.4952 74.6462 19.4952H67.5734V1.48875H74.6462ZM74.6462 16.0997C76.1896 16.0997 77.4447 15.5852 78.4115 14.5563C79.3783 13.5102 79.8617 12.1554 79.8617 10.492C79.8617 8.82851 79.3783 7.48231 78.4115 6.45338C77.4447 5.40729 76.1896 4.88424 74.6462 4.88424H71.0843V16.0997H74.6462Z" fill="#202325"/>
<path d="M87.1861 5.09003C86.6433 5.09003 86.1684 4.89282 85.7613 4.49839C85.3712 4.08682 85.1762 3.60664 85.1762 3.05788C85.1762 2.50911 85.3712 2.02894 85.7613 1.61736C86.1684 1.20579 86.6433 1 87.1861 1C87.7458 1 88.2207 1.20579 88.6108 1.61736C89.0179 2.02894 89.2214 2.50911 89.2214 3.05788C89.2214 3.60664 89.0179 4.08682 88.6108 4.49839C88.2207 4.89282 87.7458 5.09003 87.1861 5.09003ZM85.5578 19.4952V6.63344H88.8398V19.4952H85.5578Z" fill="#202325"/>
<path d="M101.511 6.63344H104.793V19.4952H101.511V17.9775C100.528 19.2294 99.1454 19.8553 97.3645 19.8553C95.6684 19.8553 94.2097 19.2036 92.9885 17.9003C91.7843 16.5798 91.1822 14.9678 91.1822 13.0643C91.1822 11.1608 91.7843 9.55734 92.9885 8.25402C94.2097 6.93355 95.6684 6.27331 97.3645 6.27331C99.1454 6.27331 100.528 6.89925 101.511 8.15112V6.63344ZM95.4564 15.6881C96.1178 16.3569 96.9574 16.6913 97.9751 16.6913C98.9927 16.6913 99.8323 16.3569 100.494 15.6881C101.172 15.0021 101.511 14.1275 101.511 13.0643C101.511 12.0011 101.172 11.135 100.494 10.4662C99.8323 9.78028 98.9927 9.4373 97.9751 9.4373C96.9574 9.4373 96.1178 9.78028 95.4564 10.4662C94.7949 11.135 94.4641 12.0011 94.4641 13.0643C94.4641 14.1275 94.7949 15.0021 95.4564 15.6881Z" fill="#202325"/>
<path d="M117.514 6.63344H120.719V18.8778C120.719 20.8671 120.066 22.3848 118.76 23.4309C117.471 24.477 115.911 25 114.079 25C112.705 25 111.492 24.7342 110.441 24.2026C109.406 23.671 108.609 22.8907 108.049 21.8617L110.848 20.2412C111.492 21.4416 112.603 22.0418 114.181 22.0418C115.215 22.0418 116.03 21.7674 116.623 21.2186C117.217 20.6699 117.514 19.8896 117.514 18.8778V17.4887C116.547 18.7921 115.19 19.4437 113.443 19.4437C111.645 19.4437 110.136 18.8092 108.914 17.5402C107.71 16.254 107.108 14.6935 107.108 12.8585C107.108 11.0407 107.719 9.48875 108.94 8.20257C110.161 6.9164 111.662 6.27331 113.443 6.27331C115.19 6.27331 116.547 6.92497 117.514 8.2283V6.63344ZM111.382 15.4051C112.061 16.0568 112.917 16.3826 113.952 16.3826C114.986 16.3826 115.834 16.0568 116.496 15.4051C117.174 14.7363 117.514 13.8875 117.514 12.8585C117.514 11.8467 117.174 11.015 116.496 10.3633C115.834 9.69453 114.986 9.36013 113.952 9.36013C112.917 9.36013 112.061 9.69453 111.382 10.3633C110.721 11.015 110.39 11.8467 110.39 12.8585C110.39 13.8875 110.721 14.7363 111.382 15.4051Z" fill="#202325"/>
<path d="M127.13 19.1865C126.706 19.6152 126.197 19.8296 125.603 19.8296C125.01 19.8296 124.501 19.6152 124.077 19.1865C123.653 18.7578 123.441 18.2433 123.441 17.6431C123.441 17.0429 123.653 16.5284 124.077 16.0997C124.501 15.671 125.01 15.4566 125.603 15.4566C126.197 15.4566 126.706 15.671 127.13 16.0997C127.554 16.5284 127.766 17.0429 127.766 17.6431C127.766 18.2433 127.554 18.7578 127.13 19.1865Z" fill="#202325"/>
<path d="M137.347 4.31833C135.549 4.18114 134.65 4.90997 134.65 6.50482V6.63344H137.347V9.82315H134.65V19.4952H131.368V9.82315H129.536V6.63344H131.368V6.50482C131.368 4.68703 131.868 3.30654 132.869 2.36334C133.87 1.42015 135.362 1.00857 137.347 1.12862V4.31833Z" fill="#202325"/>
<path d="M142.133 8.84566C142.438 8.02251 142.939 7.40514 143.634 6.99357C144.346 6.58199 145.135 6.3762 146 6.3762V10.0804C144.999 9.96034 144.1 10.1661 143.303 10.6977C142.523 11.2294 142.133 12.1125 142.133 13.3473V19.4952H138.851V6.63344H142.133V8.84566Z" fill="#202325"/>
<rect x="158" width="44" height="26" rx="8" fill="#F0A400"/>
<path d="M170.564 8.2C171.507 8.2 172.3 8.51733 172.944 9.152C173.588 9.78667 173.91 10.566 173.91 11.49C173.91 12.414 173.588 13.1933 172.944 13.828C172.3 14.4627 171.507 14.78 170.564 14.78H168.842V18H166.91V8.2H170.564ZM170.564 12.974C170.975 12.974 171.315 12.834 171.586 12.554C171.857 12.2647 171.992 11.91 171.992 11.49C171.992 11.0607 171.857 10.706 171.586 10.426C171.315 10.146 170.975 10.006 170.564 10.006H168.842V12.974H170.564ZM180.544 18L178.57 14.598H177.1V18H175.168V8.2H179.088C179.993 8.2 180.763 8.51733 181.398 9.152C182.032 9.78667 182.35 10.552 182.35 11.448C182.35 12.0547 182.177 12.6193 181.832 13.142C181.486 13.6553 181.029 14.0427 180.46 14.304L182.63 18H180.544ZM177.1 10.006V12.904H179.088C179.452 12.904 179.764 12.764 180.026 12.484C180.287 12.1947 180.418 11.8493 180.418 11.448C180.418 11.0467 180.287 10.706 180.026 10.426C179.764 10.146 179.452 10.006 179.088 10.006H177.1ZM191.904 16.726C190.915 17.706 189.711 18.196 188.292 18.196C186.873 18.196 185.669 17.706 184.68 16.726C183.7 15.7367 183.21 14.528 183.21 13.1C183.21 11.672 183.7 10.468 184.68 9.488C185.669 8.49867 186.873 8.004 188.292 8.004C189.711 8.004 190.915 8.49867 191.904 9.488C192.893 10.468 193.388 11.672 193.388 13.1C193.388 14.528 192.893 15.7367 191.904 16.726ZM186.038 15.41C186.645 16.0073 187.396 16.306 188.292 16.306C189.188 16.306 189.939 16.0073 190.546 15.41C191.153 14.8033 191.456 14.0333 191.456 13.1C191.456 12.1667 191.153 11.3967 190.546 10.79C189.939 10.1833 189.188 9.88 188.292 9.88C187.396 9.88 186.645 10.1833 186.038 10.79C185.431 11.3967 185.128 12.1667 185.128 13.1C185.128 14.0333 185.431 14.8033 186.038 15.41Z" fill="white"/>
</svg>
