<svg width="24" height="24" viewBox="0 0 24 24" fill="none" xmlns="http://www.w3.org/2000/svg">
<path d="M10.4107 19.9677C7.58942 17.858 2 13.0348 2 8.69444C2 5.82563 4.10526 3.5 7 3.5C8.5 3.5 10 4 12 6C14 4 15.5 3.5 17 3.5C19.8947 3.5 22 5.82563 22 8.69444C22 13.0348 16.4106 17.858 13.5893 19.9677C12.6399 20.6776 11.3601 20.6776 10.4107 19.9677Z" fill="#C9C9C9"/>
<mask id="mask0_748_3950" style="mask-type:alpha" maskUnits="userSpaceOnUse" x="2" y="3" width="20" height="18">
<path d="M10.4107 19.9677C7.58942 17.858 2 13.0348 2 8.69444C2 5.82563 4.10526 3.5 7 3.5C8.5 3.5 10 4 12 6C14 4 15.5 3.5 17 3.5C19.8947 3.5 22 5.82563 22 8.69444C22 13.0348 16.4106 17.858 13.5893 19.9677C12.6399 20.6776 11.3601 20.6776 10.4107 19.9677Z" fill="#D4D4D4"/>
</mask>
<g mask="url(#mask0_748_3950)">
<path d="M11.7092 4.62599C12.0539 4.39635 12.5195 4.48935 12.7492 4.834L14.7491 7.8362C14.9332 8.11257 14.9137 8.47723 14.7011 8.73232L12.6393 11.2053L14.1551 12.7211C14.3833 12.9493 14.44 13.2981 14.2957 13.5868L13.296 15.5874C13.1108 15.9579 12.6601 16.108 12.2896 15.9229C11.9191 15.7377 11.769 15.287 11.9542 14.9165L12.7122 13.3993L11.0947 11.7818C10.8204 11.5074 10.8005 11.069 11.0489 10.771L13.1901 8.20168L11.5008 5.66603C11.2711 5.32132 11.3645 4.85566 11.7092 4.62599Z" fill="#8B8B8B"/>
</g>
</svg>
