<svg width="29" height="28" viewBox="0 0 29 28" fill="none" xmlns="http://www.w3.org/2000/svg">
<circle cx="14.1667" cy="14" r="14" fill="#FFE4E4"/>
<path d="M7.93212 20.5679C8.50828 21.144 9.44243 21.144 10.0186 20.5679L14.5003 16.0863L18.9814 20.5672C19.5573 21.1431 20.4909 21.1434 21.0672 20.5679C21.644 19.9919 21.6443 19.0573 21.0679 18.4809L16.5868 14L21.0679 9.51913C21.6438 8.94326 21.6441 8.0097 21.0686 7.43346C20.4925 6.85669 19.5578 6.85638 18.9814 7.43278L14.5003 11.9136L10.0186 7.4321C9.44243 6.85597 8.50828 6.85597 7.93212 7.4321C7.35596 8.00823 7.35596 8.94232 7.93212 9.51845L12.4139 14L7.93212 18.4816C7.35596 19.0577 7.35596 19.9918 7.93212 20.5679Z" fill="#FF4B4B"/>
</svg>
