<svg width="38" height="38" viewBox="0 0 38 38" fill="none" xmlns="http://www.w3.org/2000/svg">
<path d="M30.0837 23.7498C30.0837 29.871 25.1215 34.8332 19.0003 34.8332C12.8792 34.8332 7.91699 29.871 7.91699 23.7498C7.91699 17.6287 12.8792 12.6665 19.0003 12.6665C25.1215 12.6665 30.0837 17.6287 30.0837 23.7498Z" fill="#BCE2E2"/>
<circle cx="15.1406" cy="19.8906" r="2.67188" fill="#D5EFEF"/>
<path d="M19.7299 7.8916C19.7036 8.14818 19.6556 8.40269 19.5863 8.65257L18.2363 12.6669M19.7299 7.8916L26.1893 9.56338L19.7299 7.8916ZM26.1893 9.56338C26.0792 9.79832 25.989 10.0419 25.9196 10.2917L24.7931 14.2502" fill="#BCE2E2"/>
<path fill-rule="evenodd" clip-rule="evenodd" d="M19.5863 8.65257C19.6556 8.40269 19.7036 8.14818 19.7299 7.8916L26.1893 9.56338C26.0792 9.79832 25.989 10.0419 25.9196 10.2917L24.7931 14.2502L21.3751 13.0626L18.2363 12.6669L19.5863 8.65257Z" fill="#BCE2E2"/>
<path d="M19.7301 7.89174C19.7557 7.6419 19.761 7.39011 19.7453 7.13871L19.5507 4.0066C19.5171 3.46722 20.0406 3.05462 20.581 3.19448L27.8841 5.08469C28.4245 5.22455 28.6642 5.83466 28.3559 6.28559L26.5661 8.90407C26.4225 9.11425 26.2965 9.33479 26.1895 9.56352M19.7301 7.89174L17.417 7.29305L19.7301 7.89174ZM19.7301 7.89174L26.1895 9.56352L19.7301 7.89174ZM26.1895 9.56352L28.5003 10.1616L26.1895 9.56352Z" fill="#EAB478"/>
<path d="M30.0837 23.7501C30.0837 29.8713 25.1215 34.8335 19.0003 34.8335C12.8792 34.8335 7.91699 29.8713 7.91699 23.7501C7.91699 23.7501 13.3597 26.7189 19.0003 23.7501C24.641 20.7813 30.0837 23.7501 30.0837 23.7501Z" fill="#42DB71"/>
</svg>
