<svg width="24" height="24" viewBox="0 0 24 24" fill="none" xmlns="http://www.w3.org/2000/svg">
<path d="M12 21.5009C16.4183 21.5009 20 17.9192 20 13.5009C20 10.5398 18.3912 6.60696 16 4.3349L14 6.99927L10.5 2.49927C7 4.99927 4 9.59538 4 13.5009C4 17.9192 7.58172 21.5009 12 21.5009Z" fill="#FF8000"/>
<path d="M12 18.499C14.2091 18.499 16 16.4843 16 13.999C16 13.208 15.8186 12.4647 15.5 11.8188L13.5 13.499L10.5 9.49805C9.5 10.498 8 12.1105 8 13.999C8 16.4843 9.79086 18.499 12 18.499Z" fill="#FFE5CB"/>
</svg>
