<svg width="42" height="42" viewBox="0 0 42 42" fill="none" xmlns="http://www.w3.org/2000/svg">
<rect width="42" height="42" rx="6" fill="#0083FF"/>
<path d="M10.0768 25.2656C8.84623 25.2656 7.8298 24.8544 7.02757 24.0318C6.22534 23.2092 5.82422 22.1948 5.82422 20.9884C5.82422 19.7741 6.22534 18.7596 7.02757 17.9449C7.8298 17.1224 8.84623 16.7111 10.0768 16.7111C10.8168 16.7111 11.4983 16.8874 12.1214 17.2399C12.7523 17.5846 13.2429 18.0546 13.5934 18.65L12.2032 19.4608C12.0006 19.0926 11.7125 18.8066 11.3386 18.603C10.9647 18.3915 10.5442 18.2857 10.0768 18.2857C9.28239 18.2857 8.63983 18.5364 8.14914 19.0377C7.66624 19.5391 7.42479 20.1893 7.42479 20.9884C7.42479 21.7796 7.66624 22.4259 8.14914 22.9272C8.63983 23.4286 9.28239 23.6793 10.0768 23.6793C10.5442 23.6793 10.9647 23.5774 11.3386 23.3738C11.7203 23.1622 12.0084 22.8763 12.2032 22.516L13.5934 23.3268C13.2429 23.9221 12.7561 24.3961 12.1331 24.7486C11.51 25.0933 10.8246 25.2656 10.0768 25.2656Z" fill="white"/>
<path d="M15.8214 22.7862C16.0239 23.5226 16.573 23.8908 17.4687 23.8908C18.0451 23.8908 18.4813 23.6949 18.7772 23.3033L19.9923 24.0083C19.4159 24.8465 18.5669 25.2656 17.4454 25.2656C16.4796 25.2656 15.7046 24.9719 15.1204 24.3843C14.5363 23.7968 14.2442 23.0565 14.2442 22.1634C14.2442 21.2782 14.5324 20.5418 15.1088 19.9543C15.6851 19.3589 16.425 19.0612 17.3285 19.0612C18.1853 19.0612 18.8902 19.3589 19.4432 19.9543C20.0039 20.5497 20.2843 21.286 20.2843 22.1634C20.2843 22.3593 20.2649 22.5669 20.2259 22.7862H15.8214ZM15.7981 21.6111H18.7772C18.6915 21.2116 18.5124 20.9139 18.2398 20.7181C17.975 20.5222 17.6712 20.4243 17.3285 20.4243C16.9235 20.4243 16.5886 20.5301 16.3238 20.7416C16.059 20.9453 15.8837 21.2351 15.7981 21.6111Z" fill="white"/>
<path d="M22.8436 20.2363C22.9838 19.8603 23.2135 19.5783 23.5329 19.3903C23.86 19.2023 24.2222 19.1082 24.6194 19.1082V20.8003C24.1598 20.7455 23.747 20.8395 23.381 21.0824C23.0227 21.3252 22.8436 21.7287 22.8436 22.2927V25.1011H21.3364V19.2258H22.8436V20.2363Z" fill="white"/>
<path d="M29.0019 20.6828H27.6817V23.127C27.6817 23.3307 27.7323 23.4795 27.8336 23.5735C27.9348 23.6675 28.0828 23.7224 28.2775 23.738C28.4722 23.7459 28.7137 23.7419 29.0019 23.7263V25.1011C27.966 25.2186 27.2338 25.1207 26.8055 24.8073C26.3849 24.494 26.1746 23.9339 26.1746 23.127V20.6828H25.1582V19.2258H26.1746V18.0389L27.6817 17.5807V19.2258H29.0019V20.6828Z" fill="white"/>
<path d="M30.8122 18.5207C30.563 18.5207 30.3449 18.4306 30.1579 18.2504C29.9788 18.0624 29.8892 17.8431 29.8892 17.5924C29.8892 17.3417 29.9788 17.1224 30.1579 16.9344C30.3449 16.7463 30.563 16.6523 30.8122 16.6523C31.0692 16.6523 31.2873 16.7463 31.4665 16.9344C31.6534 17.1224 31.7468 17.3417 31.7468 17.5924C31.7468 17.8431 31.6534 18.0624 31.4665 18.2504C31.2873 18.4306 31.0692 18.5207 30.8122 18.5207ZM30.0645 25.1011V19.2258H31.5716V25.1011H30.0645Z" fill="white"/>
<path d="M36.0938 18.1682C35.2682 18.1055 34.8554 18.4385 34.8554 19.167V19.2258H36.0938V20.6828H34.8554V25.1011H33.3482V20.6828H32.5071V19.2258H33.3482V19.167C33.3482 18.3366 33.578 17.706 34.0375 17.2751C34.4971 16.8443 35.1825 16.6563 36.0938 16.7111V18.1682Z" fill="white"/>
</svg>
